<svg xmlns="http://www.w3.org/2000/svg" viewBox="0 0 300.84 151.73"><defs><style>.cls-1,.cls-10,.cls-2,.cls-3,.cls-4,.cls-5,.cls-6,.cls-7,.cls-8,.cls-9{fill:none;stroke:#fff;stroke-miterlimit:10;}.cls-1{stroke-width:0.5px;}.cls-2{stroke-width:0.47px;}.cls-3{stroke-width:0.44px;}.cls-4{stroke-width:0.42px;}.cls-5{stroke-width:0.39px;}.cls-6{stroke-width:0.36px;}.cls-7{stroke-width:0.33px;}.cls-8{stroke-width:0.31px;}.cls-9{stroke-width:0.28px;}.cls-10{stroke-width:0.25px;}</style></defs><g id="illustration"><polygon class="cls-1" points="0.56 75.21 151.72 0.28 300.29 76.52 150.99 151.45 0.56 75.21"/><polygon class="cls-2" points="12.12 75.26 151.63 6.11 288.72 76.47 150.95 145.62 12.12 75.26"/><polygon class="cls-3" points="23.68 75.31 151.52 11.94 277.16 76.42 150.91 139.78 23.68 75.31"/><polygon class="cls-4" points="35.24 75.36 151.42 17.77 265.6 76.36 150.86 133.95 35.24 75.36"/><polygon class="cls-5" points="46.81 75.41 151.32 23.61 254.04 76.31 150.82 128.12 46.81 75.41"/><polygon class="cls-6" points="58.37 75.46 151.22 29.44 242.47 76.26 150.77 122.29 58.37 75.46"/><polygon class="cls-7" points="69.93 75.51 151.12 35.27 230.91 76.21 150.73 116.46 69.93 75.51"/><polygon class="cls-8" points="81.49 75.56 151.02 41.1 219.35 76.16 150.68 110.63 81.49 75.56"/><polygon class="cls-9" points="93.06 75.61 150.92 46.93 207.79 76.11 150.64 104.8 93.06 75.61"/><polygon class="cls-10" points="104.62 75.66 150.82 52.76 196.23 76.06 150.6 98.97 104.62 75.66"/></g></svg>