<?xml version="1.0" encoding="utf-8"?>
<!-- Generator: Adobe Illustrator 26.3.1, SVG Export Plug-In . SVG Version: 6.00 Build 0)  -->
<svg version="1.1" id="Layer_1" xmlns="http://www.w3.org/2000/svg" xmlns:xlink="http://www.w3.org/1999/xlink" x="0px" y="0px"
	 viewBox="0 0 405 204.7" style="enable-background:new 0 0 405 204.7;" xml:space="preserve">
<style type="text/css">
	.st0{fill:none;stroke:#FFFFFF;stroke-width:2;stroke-miterlimit:10;}
</style>
<g id="illustration">
	<polygon class="st0" points="1.8,101.1 203.5,1.9 401.8,102.8 202.6,201.9 	"/>
	<polygon class="st0" points="17.2,101.1 203.4,9.6 386.4,102.7 202.5,194.2 	"/>
	<polygon class="st0" points="32.7,101.2 203.3,17.4 371,102.7 202.5,186.5 	"/>
	<polygon class="st0" points="48.1,101.3 203.1,25.1 355.5,102.6 202.4,178.8 	"/>
	<polygon class="st0" points="63.5,101.3 203,32.8 340.1,102.5 202.3,171.1 	"/>
	<polygon class="st0" points="79,101.4 202.9,40.5 324.7,102.5 202.3,163.3 	"/>
	<polygon class="st0" points="94.4,101.5 202.7,48.2 309.2,102.4 202.2,155.6 	"/>
	<polygon class="st0" points="109.8,101.5 202.6,55.9 293.8,102.3 202.2,147.9 	"/>
	<polygon class="st0" points="125.3,101.6 202.5,63.6 278.4,102.3 202.1,140.2 	"/>
	<polygon class="st0" points="140.7,101.7 202.3,71.4 262.9,102.2 202.1,132.5 	"/>
</g>
</svg>
