<svg width="51" height="71" viewBox="0 0 51 71" fill="none" xmlns="http://www.w3.org/2000/svg">
<g clip-path="url(#clip0_186_1042)">
<path d="M0.0410156 9.67092C0.0410156 3.48324 2.31414 0 7.03984 0C10.6546 0 12.3125 2.08823 13.167 4.63006L10.4666 5.5458C9.90261 3.83413 9.13351 2.49047 7.04839 2.49047C4.4078 2.49047 3.25415 4.65574 3.25415 8.08763V11.2457C3.25415 14.669 4.4078 16.8428 7.04839 16.8428C9.16769 16.8428 9.93679 15.5077 10.4666 13.796L13.167 14.7032C12.3125 17.2707 10.6546 19.3333 7.03984 19.3333C2.27141 19.3333 0.0410156 15.8586 0.0410156 9.67092Z" fill="white"/>
<path d="M22.3899 19.0166H19.416V0.325195H26.3977C29.9271 0.325195 31.8755 2.46478 31.8755 5.94803C31.8755 8.78084 30.4398 10.7664 27.842 11.1943L32.1147 19.0166H28.7991L24.8339 11.4596H22.3557L22.3899 19.0166ZM25.9705 9.0547C27.8419 9.0547 28.7478 8.19887 28.7478 6.4872V5.34038C28.7478 3.62872 27.8419 2.77288 25.9705 2.77288H22.3899V9.01192L25.9705 9.0547Z" fill="white"/>
<path d="M38.1992 19.0166V0.325195H49.881V2.84135H41.1902V8.2759H49.6076V10.792H41.2329V16.5005H49.9237V19.0166H38.1992Z" fill="white"/>
<path d="M0.0429688 30.2627H5.60613C10.3318 30.2627 12.6392 33.532 12.6392 39.6084C12.6392 45.6848 10.3318 48.9627 5.60613 48.9627H0.0429688V30.2627ZM5.41813 46.5235C8.14417 46.5235 9.47728 44.5894 9.47728 41.1917V38.085C9.47728 34.6617 8.14417 32.7532 5.41813 32.7532H3.00829V46.5235H5.41813Z" fill="white"/>
<path d="M18.6641 48.9627V46.6862H23.0565V32.5392H18.6641V30.2627H30.4313V32.5392H26.0474V46.6862H30.4313V48.9627H18.6641Z" fill="white"/>
<path d="M50.821 48.9622H47.4027L45.3347 45.2649L43.3521 41.7304H43.1983L41.1645 45.2649L38.9683 48.9622H35.7637L41.4807 39.3854L36.114 30.2793H39.5323L41.4294 33.6256L43.3521 37.0489H43.4889L45.4116 33.6256L47.3942 30.2793H50.5732L45.1467 39.3854L50.821 48.9622Z" fill="white"/>
<path d="M51 68.4326H0V71.0001H51V68.4326Z" fill="white"/>
</g>
<defs>
<clipPath id="clip0_186_1042">
<rect width="51" height="71" fill="white"/>
</clipPath>
</defs>
</svg>
