<svg width="25" height="35" viewBox="0 0 25 35" fill="none" xmlns="http://www.w3.org/2000/svg">
<g clip-path="url(#clip0_284_2708)">
<path d="M0.0205078 4.76736C0.0205078 1.71709 1.13478 0 3.45131 0C5.22326 0 6.03592 1.02941 6.45482 2.28242L5.1311 2.73385C4.85462 1.89007 4.47761 1.2277 3.45549 1.2277C2.16109 1.2277 1.59557 2.29508 1.59557 3.98686V5.54364C1.59557 7.2312 2.16109 8.3028 3.45549 8.3028C4.49437 8.3028 4.87138 7.64465 5.1311 6.80087L6.45482 7.24807C6.03592 8.51374 5.22326 9.53049 3.45131 9.53049C1.11384 9.53049 0.0205078 7.81762 0.0205078 4.76736Z" fill="#F0F0F0"/>
<path d="M10.9754 9.37448H9.51758V0.1604H12.94C14.6701 0.1604 15.6252 1.21513 15.6252 2.93222C15.6252 4.32867 14.9214 5.30746 13.6479 5.5184L15.7424 9.37448H14.1171L12.1734 5.64919H10.9586L10.9754 9.37448ZM12.7305 4.46368C13.6479 4.46368 14.092 4.04179 14.092 3.19801V2.63268C14.092 1.7889 13.6479 1.36701 12.7305 1.36701H10.9754V4.44259L12.7305 4.46368Z" fill="#F0F0F0"/>
<path d="M18.7246 9.37448V0.1604H24.451V1.40076H20.1908V4.07976H24.3169V5.32011H20.2117V8.13412H24.4719V9.37448H18.7246Z" fill="#F0F0F0"/>
<path d="M0.0205078 14.918H2.74755C5.06407 14.918 6.19511 16.5296 6.19511 19.525C6.19511 22.5204 5.06407 24.1363 2.74755 24.1363H0.0205078V14.918ZM2.65539 22.9339C3.99168 22.9339 4.64517 21.9804 4.64517 20.3055V18.774C4.64517 17.0865 3.99168 16.1457 2.65539 16.1457H1.47409V22.9339H2.65539Z" fill="#F0F0F0"/>
<path d="M9.14844 24.1363V23.014H11.3016V16.0402H9.14844V14.918H14.9167V16.0402H12.7677V23.014H14.9167V24.1363H9.14844Z" fill="#F0F0F0"/>
<path d="M24.9123 24.1364H23.2367L22.2229 22.3138L21.2511 20.5714H21.1757L20.1787 22.3138L19.1021 24.1364H17.5312L20.3337 19.4154L17.703 14.9265H19.3786L20.3086 16.5761L21.2511 18.2637H21.3181L22.2606 16.5761L23.2325 14.9265H24.7908L22.1308 19.4154L24.9123 24.1364Z" fill="#F0F0F0"/>
<path d="M25 33.7344H0V35H25V33.7344Z" fill="#F0F0F0"/>
</g>
<defs>
<clipPath id="clip0_284_2708">
<rect width="25" height="35" fill="white"/>
</clipPath>
</defs>
</svg>
