<svg width="48" height="4" viewBox="0 0 48 4" fill="none" xmlns="http://www.w3.org/2000/svg">
<path d="M47.4434 2L46 0.556624L44.5566 2L46 3.44338L47.4434 2ZM0 2.25H0.958333V1.75H0V2.25ZM2.875 2.25H4.79167V1.75H2.875V2.25ZM6.70833 2.25H8.625V1.75H6.70833V2.25ZM10.5417 2.25H12.4583V1.75H10.5417V2.25ZM14.375 2.25H16.2917V1.75H14.375V2.25ZM18.2083 2.25H20.125V1.75H18.2083V2.25ZM22.0417 2.25H23.9583V1.75H22.0417V2.25ZM25.875 2.25H27.7917V1.75H25.875V2.25ZM29.7083 2.25H31.625V1.75H29.7083V2.25ZM33.5417 2.25H35.4583V1.75H33.5417V2.25ZM37.375 2.25H39.2917V1.75H37.375V2.25ZM41.2083 2.25H43.125V1.75H41.2083V2.25ZM45.0417 2.25H46V1.75L45.0417 1.75V2.25Z" fill="white" fill-opacity="0.54"/>
</svg>
